inDegrees=no
num_controls=7
num_derivatives=13
num_iterations=150
num_multipliers=7
num_parameters=0
num_slacks=7
num_states=26
objective=0.517078
objective_accelerations=0.039178
objective_balance=0.002228
objective_effort=0.043585
objective_height=0.420417
objective_ligament=0.011670
solver_duration=2024.211149
status=Solve_Succeeded
success=true
DataType=double
version=3
OpenSimVersion=4.5
endheader
time	/jointset/ground_pelvis/pelvis_tilt/value	/jointset/ground_pelvis/pelvis_tx/value	/jointset/ground_pelvis/pelvis_ty/value	/jointset/hip_l/hip_flexion_l/value	/jointset/hip_l/hip_adduction_l/value	/jointset/hip_l/hip_rotation_l/value	/jointset/back/lumbar_extension/value	/jointset/patellofemoral_l/patellar_flexion_l/value	/jointset/knee_l/knee_flexion_l/value	/jointset/knee_l/knee_adduction_l/value	/jointset/knee_l/knee_rotation_l/value	/jointset/ankle_l/ankle_angle_l/value	/jointset/subtalar_l/subtalar_angle_l/value	/jointset/ground_pelvis/pelvis_tilt/speed	/jointset/ground_pelvis/pelvis_tx/speed	/jointset/ground_pelvis/pelvis_ty/speed	/jointset/hip_l/hip_flexion_l/speed	/jointset/hip_l/hip_adduction_l/speed	/jointset/hip_l/hip_rotation_l/speed	/jointset/back/lumbar_extension/speed	/jointset/patellofemoral_l/patellar_flexion_l/speed	/jointset/knee_l/knee_flexion_l/speed	/jointset/knee_l/knee_adduction_l/speed	/jointset/knee_l/knee_rotation_l/speed	/jointset/ankle_l/ankle_angle_l/speed	/jointset/subtalar_l/subtalar_angle_l/speed	/forceset/tau_hip_flexion_l	/forceset/tau_hip_adduction_l	/forceset/tau_hip_rotation_l	/forceset/tau_knee_flexion_l	/forceset/tau_ankle_angle_l	/forceset/tau_subtalar_angle_l	/forceset/tau_lumbar_extension	lambda_cid13_p0	lambda_cid13_p1	lambda_cid13_p2	lambda_cid13_p3	lambda_cid13_p4	lambda_cid13_p5	lambda_cid14_p0	/jointset/ground_pelvis/pelvis_tilt/accel	/jointset/ground_pelvis/pelvis_tx/accel	/jointset/ground_pelvis/pelvis_ty/accel	/jointset/hip_l/hip_flexion_l/accel	/jointset/hip_l/hip_adduction_l/accel	/jointset/hip_l/hip_rotation_l/accel	/jointset/back/lumbar_extension/accel	/jointset/patellofemoral_l/patellar_flexion_l/accel	/jointset/knee_l/knee_flexion_l/accel	/jointset/knee_l/knee_adduction_l/accel	/jointset/knee_l/knee_rotation_l/accel	/jointset/ankle_l/ankle_angle_l/accel	/jointset/subtalar_l/subtalar_angle_l/accel	gamma_cid13_p0	gamma_cid13_p1	gamma_cid13_p2	gamma_cid13_p3	gamma_cid13_p4	gamma_cid13_p5	gamma_cid14_p0
1.5	-0.01492134759118315	-0.02615941733309924	0.869633330165548	0.6282862449002053	-0.3120807525878799	-0.1803713789159384	-0.7843126710313709	0.6316012660765166	0.6316012660764848	-0.1088812792096251	-0.1745303915608324	0.06615731097483585	0.004797078757476364	0.3890984720345418	0.2808207624422847	0.3388772062004576	-1.85573972218088	0.09436794857176597	-0.5294901025947786	0.841358592541949	-1.619275002708942	-1.619275002708923	-0.1252403374945154	1.87797423121709e-05	-0.2393966302465111	0.02527018865821337	-0.2049488800154743	0.02116106260936445	-0.003860175834773169	-0.1888156265637622	0.09981572214889682	0.04038470007132069	0.2807318938475459	-10.7989792557324	-17.73625582818169	4.758339234656829	-8.586579382623272	-673.6078194315473	-75.6795503939294	-20.15677381063941	-0.009547466485989692	0.6289845804835952	-0.4915817553601668	-0.6368795726271161	0.3089357960669378	-0.2130862527917234	1.748169117105658	-0.6266917264248675	-0.6266917264248694	-0.3002378097201281	0.03380819113975781	0.04237260871201277	0.3313637423334364	-2.877631630769743e-09	9.860689720248071e-07	1.538433121555593e-07	1.539548813835133e-07	7.789276353709034e-08	1.352018363522903e-07	9.506508299876765e-08
1.51	-0.01103130164397537	-0.02332004324162075	0.8729968698825725	0.6096990754406069	-0.3111220687715127	-0.1856780709304772	-0.7758128948536481	0.6153792653148833	0.6153792653148665	-0.110148572389903	-0.1745302783314585	0.06376578960581387	0.005065975579529447	0.3888567505595401	0.2870223375285286	0.333766456211573	-1.861457170603808	0.09736054053048994	-0.5317961696984974	0.858480266958794	-1.624906066990354	-1.624906066990336	-0.1282120386715347	2.634205979873066e-06	-0.238858829051466	0.0285144361821948	-0.1974178884011372	0.02018358815898485	-0.003838727896923312	-0.186306225827058	0.09943085643687857	0.03956653422698139	0.2737333958030194	-10.73016526422698	-17.44507242057839	4.771424188311977	-8.379926197699215	-669.8884189914974	-75.69030158262444	-20.61409029917494	-0.03958977582695417	0.6110186418287423	-0.5304487803398832	-0.5036399916988552	0.2930091267064683	-0.2314722165985146	1.676710197419089	-0.4984696601695143	-0.4984696601697	-0.2945057592531894	-0.01949609524123362	0.06683252976813465	0.3215579674912192	-1.140606042442653e-08	1.015587056234771e-06	1.857403280637818e-07	1.593236882867813e-07	7.594804837483975e-08	1.352431323004504e-07	9.263045630321478e-08
1.52	-0.007145293969080859	-0.02041959846545302	0.8763073766677707	0.5910618389938646	-0.3101337413893718	-0.1910062446715411	-0.7671453932130678	0.5991075227342036	0.5991075227341983	-0.1114453564794654	-0.174530360591289	0.06138111597971578	0.005367435418834482	0.3882908175717492	0.2930348993801331	0.3282706198351992	-1.865753119609665	0.1002966617264682	-0.533786447899678	0.8749036851134459	-1.62922336651857	-1.629223366518554	-0.1311385193509679	-2.031809921315449e-05	-0.2380270816617257	0.03178279210860511	-0.1898868967868022	0.01920611370860318	-0.003817279959096391	-0.1837968250903532	0.0990459907248596	0.03874836838263933	0.2667348977584919	-10.66719024829459	-17.15263094340087	4.784039265829331	-8.175788763939929	-666.2679102969331	-75.717665609995	-21.04727443836881	-0.07438976904381894	0.5911819335556748	-0.5685990328579856	-0.3525796892129253	0.2976416435177918	-0.1499284722840641	1.608517864667085	-0.3639387757856207	-0.3639387757856186	-0.2911937102028878	0.03244683736760964	0.1011618476510506	0.3361854228192108	-8.976635494076187e-09	1.012816068155848e-06	1.614992004729473e-07	1.548734316280394e-07	8.334623775140924e-08	1.41739106139964e-07	9.427360347920999e-08
1.53	-0.003266558424806479	-0.01746003366133073	0.8795610566158704	0.5723887382578087	-0.3091164024480635	-0.1963524368543123	-0.7583173120271824	0.5827991617637581	0.5827991617637642	-0.1127714418733194	-0.1745304781949085	0.05900619606712955	0.005701615005518043	0.3874020588744794	0.2988398248680247	0.3224064465513615	-1.86862449645701	0.1031597769493917	-0.5353986510619233	0.890579948110178	-1.63222433717284	-1.632224337172825	-0.134069525767757	-4.319885470612737e-06	-0.236908331665095	0.03505533069940115	-0.1822382180188892	0.01816767029367303	-0.003849622645030898	-0.1814109081090801	0.09876890455579877	0.03783573511217527	0.2596295594324707	-10.58089215617093	-16.82036516908578	4.787014680854948	-7.939252186335545	-662.7429584272968	-75.68948268715765	-21.45358358320463	-0.1042608832154536	0.5694387744879458	-0.6041429718996869	-0.2180450798121685	0.2788040111304453	-0.1587785389147349	1.527289924175019	-0.2345233403042302	-0.2345233403044747	-0.2925299594606254	-0.01400774377716745	0.1245409948174979	0.3229641459743006	5.095509018031595e-09	9.757379407699839e-07	7.761129541436529e-08	1.39990419934662e-07	1.006712632004749e-07	1.550931752390406e-07	1.00249385393725e-07
1.54	0.0006016611398667048	-0.01444356141871309	0.8827543315319811	0.5536941980738165	-0.3080708008446356	-0.2017131335288502	-0.7493364463299299	0.566467521660759	0.5664675216607757	-0.1141265325017508	-0.1745304726278204	0.05664392553833938	0.006068555191862467	0.3861876216513319	0.3044163870791997	0.3161896134374066	-1.870041009197029	0.1059491941503475	-0.5366873462529673	0.9054605873868588	-1.633879193029373	-1.633879193029359	-0.1369395662662941	4.316042082069035e-06	-0.2354972049025271	0.03833491204077717	-0.1745895392509758	0.01712922687874267	-0.003881965330973282	-0.1790249911278058	0.09849181838673819	0.03692310184171099	0.2525242211064497	-10.50058160394345	-16.4864401962905	4.789027975249704	-7.70495166832351	-659.3187983532326	-75.68108644952727	-21.83034693065022	-0.1395254742193582	0.545509278212308	-0.6391309988813868	-0.0616068677476042	0.2829020391242473	-0.08522687804380742	1.449393120656826	-0.09471581623819789	-0.09471581623819783	-0.2790005265524673	0.03097438012963511	0.159637200838507	0.3375939729352033	9.24336531059371e-09	9.546577037793009e-07	4.2931628719567e-08	1.319785982440741e-07	1.092042598108759e-07	1.604721121033227e-07	1.012149243121141e-07
1.55	0.004456079370656568	-0.01137254649462758	0.8858837257100024	0.5349928967187988	-0.3069976330467791	-0.2070851453518218	-0.7402108755641195	0.5501261398918568	0.5501261398918367	-0.1155098719588979	-0.1745304242035238	0.05429722418291041	0.006468374242066774	0.3846403535917077	0.3097400203518632	0.3096353920040847	-1.869964505882141	0.1086700634268688	-0.5376610366807063	0.9195063108442325	-1.634162917974786	-1.634162917974779	-0.1397148062471789	1.541575882504136e-06	-0.2337957177842707	0.04162788252512289	-0.1668980103313355	0.01605011814879979	-0.00395728441108647	-0.1766477122361782	0.09813032450751889	0.03596232509343898	0.2453652954585718	-10.45885868597068	-16.12330755841107	4.784622698976873	-7.38432621092626	-656.0096940938295	-75.63811995819907	-22.17496070093348	-0.1706879327720261	0.5188301100183138	-0.6716208959548489	0.0804814473163418	0.2643872546257153	-0.09526680172944287	1.360073718650881	0.03991683536135616	0.03991683536036241	-0.2745873250905607	-0.01648637194498551	0.1825293901197616	0.3248373316285416	1.956715611071223e-09	9.520098187656743e-07	6.494841057434243e-08	1.318835824262648e-07	1.076073101506421e-07	1.56662309653603e-07	9.640779195235858e-08
1.56	0.008293352828663461	-0.008249687286170418	0.8889459670376112	0.5163000009001716	-0.3058977149796157	-0.2124652594143899	-0.7309492652116608	0.5337889444073087	0.5337889444072553	-0.1169205241340989	-0.1745305201262825	0.05196896268322405	0.006901060746203402	0.3827586670945591	0.3147852439535282	0.3027590433548748	-1.868359901918882	0.1112992480117776	-0.5383077941720654	0.9326685047165353	-1.633041936158028	-1.633041936158028	-0.1424021098774275	-2.455336832602293e-05	-0.2318092337539921	0.04490840282723982	-0.1592064814117026	0.01497100941885213	-0.00403260349116902	-0.1742704333445553	0.09776883062829776	0.03500154834516171	0.23820636981069	-10.42332423791284	-15.75780206986801	4.778366574856731	-7.062795592145412	-652.8029370858942	-75.61001373613422	-22.48495456228199	-0.2064091617242228	0.4898273440126068	-0.703556442058999	0.2440132619263144	0.2645651008017563	-0.0198402907678045	1.272687203642692	0.1862255361962085	0.1862255361962066	-0.2614132564252296	0.02631028452784125	0.2166365832429396	0.3351039364894398	2.18510802281598e-08	9.354373837235225e-07	-2.870234137953371e-08	1.151200296788917e-07	1.443934613653803e-07	1.835129346664393e-07	1.059231388896896e-07
1.57	0.01211024460155924	-0.005077816530469831	0.891937934032766	0.4976304553753448	-0.3047722169274891	-0.2178496228868532	-0.7215607077549112	0.5174696988223813	0.5174696988223534	-0.118358404869175	-0.1745305911225478	0.04966181123079026	0.007366152460950587	0.3805601343833056	0.3195365531606989	0.2955868594554235	-1.865283888341006	0.1137863055879317	-0.5385137344186617	0.9448859176765056	-1.630566254213932	-1.630566254213936	-0.1451474034698991	5.509372030359716e-06	-0.2295724842299155	0.04811019419873245	-0.1514332828310432	0.01375181558554333	-0.004157174500568499	-0.1721101670481932	0.09761045113724789	0.03400551729369874	0.2310165493137314	-10.34012389363281	-15.38135990371757	4.765829923955833	-6.734937744807212	-649.8281034487198	-75.59553546667695	-22.75841715788854	-0.235507646336706	0.4599407797087603	-0.7311182044718897	0.3791964798768366	0.238589378622527	-0.01316062671468411	1.172707998662285	0.3143486899424213	0.3143486899418588	-0.2769640368709824	-0.009469693593839024	0.2345036141307506	0.3126623008547547	7.572171274101187e-08	9.014592611457143e-07	-2.669375105942228e-07	7.752080576956411e-08	2.291584886738331e-07	2.486890940074704e-07	1.333415849483786e-07
